<svg xmlns="http://www.w3.org/2000/svg" width="80" height="81" viewBox="0 0 80 81" fill="none">
  <path d="M68.0669 15.7708C66.3947 14.0927 64.4076 12.7612 62.2197 11.8527C60.0318 10.9442 57.686 10.4766 55.3169 10.4766C52.9479 10.4766 50.6021 10.9442 48.4142 11.8527C46.2263 12.7612 44.2392 14.0927 42.567 15.7708L40.0003 18.3708L37.4336 15.7708C35.7614 14.0927 33.7743 12.7612 31.5864 11.8527C29.3984 10.9442 27.0527 10.4766 24.6836 10.4766C22.3146 10.4766 19.9688 10.9442 17.7809 11.8527C15.593 12.7612 13.6059 14.0927 11.9336 15.7708C4.86695 22.8374 4.43362 34.7708 13.3336 43.8374L40.0003 70.5041L66.6669 43.8374C75.5669 34.7708 75.1336 22.8374 68.0669 15.7708Z" stroke="white" stroke-width="4.57143" stroke-linecap="round" stroke-linejoin="round"/>
  <path d="M39.9984 18.3672L29.565 28.8339C28.246 30.1637 27.5059 31.9608 27.5059 33.8339C27.5059 35.7069 28.246 37.504 29.565 38.8339C30.8948 40.1529 32.692 40.893 34.565 40.893C36.4381 40.893 38.2352 40.1529 39.565 38.8339L47.0984 31.4672C48.9706 29.6148 51.498 28.5758 54.1317 28.5758C56.7654 28.5758 59.2928 29.6148 61.165 31.4672L69.165 39.4672" stroke="white" stroke-width="4.57143" stroke-linecap="round" stroke-linejoin="round"/>
  <path d="M59.9987 50.4948L53.332 43.8281" stroke="white" stroke-width="4.57143" stroke-linecap="round" stroke-linejoin="round"/>
  <path d="M49.9987 60.4948L43.332 53.8281" stroke="white" stroke-width="4.57143" stroke-linecap="round" stroke-linejoin="round"/>
</svg>