<svg width="50" height="50" viewBox="0 0 50 50" fill="none" xmlns="http://www.w3.org/2000/svg">
<g id="Person 4">
<g id="Group 190">
<circle id="Ellipse 50" cx="25" cy="25" r="25" fill="#F8DF71"/>
</g>
<path id="Vector" d="M32.8229 36.221V33.84C32.8229 32.5771 32.3212 31.3659 31.4282 30.4729C30.5352 29.5798 29.3239 29.0781 28.061 29.0781H20.9182C19.6552 29.0781 18.444 29.5798 17.551 30.4729C16.6579 31.3659 16.1562 32.5771 16.1562 33.84V36.221" stroke="#262626" stroke-width="2.55102" stroke-linecap="round" stroke-linejoin="round"/>
<path id="Vector_2" d="M24.4904 24.3207C27.1203 24.3207 29.2523 22.1887 29.2523 19.5588C29.2523 16.9289 27.1203 14.7969 24.4904 14.7969C21.8605 14.7969 19.7285 16.9289 19.7285 19.5588C19.7285 22.1887 21.8605 24.3207 24.4904 24.3207Z" stroke="#262626" stroke-width="2.55102" stroke-linecap="round" stroke-linejoin="round"/>
</g>
</svg>
