<svg width="282" height="222" viewBox="0 0 282 222" fill="none" xmlns="http://www.w3.org/2000/svg">
<g clip-path="url(#clip0_1006_8750)">
<path d="M138.781 50.4395H137.615V18.491C137.615 13.5869 135.667 8.88361 132.199 5.41588C128.731 1.94816 124.027 6.11505e-06 119.123 1.17355e-10H51.4325C49.0042 -8.65078e-06 46.5996 0.478265 44.356 1.40751C42.1125 2.33676 40.074 3.69879 38.3568 5.41582C36.6397 7.13286 35.2776 9.17128 34.3483 11.4147C33.419 13.6581 32.9407 16.0626 32.9407 18.4909V193.763C32.9407 196.191 33.419 198.596 34.3483 200.839C35.2776 203.083 36.6397 205.121 38.3568 206.838C40.0739 208.555 42.1124 209.917 44.3559 210.846C46.5995 211.776 49.0041 212.254 51.4324 212.254H119.123C121.551 212.254 123.956 211.776 126.199 210.846C128.443 209.917 130.481 208.555 132.199 206.838C133.916 205.121 135.278 203.083 136.207 200.839C137.136 198.596 137.615 196.191 137.615 193.763V73.181H138.781V50.4395Z" fill="#3F3D56"/>
<path d="M119.73 5.24805H110.894C111.3 6.24421 111.455 7.325 111.346 8.39523C111.236 9.46545 110.865 10.4923 110.264 11.3852C109.664 12.2781 108.854 13.0098 107.904 13.5157C106.955 14.0216 105.895 14.2863 104.82 14.2863H66.0406C64.9647 14.2863 63.9053 14.0216 62.9558 13.5157C62.0063 13.0098 61.1958 12.2781 60.5957 11.3852C59.9955 10.4923 59.6242 9.46545 59.5144 8.39523C59.4047 7.32501 59.5598 6.24421 59.9661 5.24805H51.7134C48.0509 5.24804 44.5384 6.70289 41.9486 9.29254C39.3589 11.8822 37.9039 15.3945 37.9039 19.0568V194.072C37.9039 195.885 38.2611 197.681 38.9551 199.356C39.6491 201.031 40.6663 202.554 41.9486 203.836C43.231 205.118 44.7533 206.135 46.4287 206.829C48.1042 207.523 49.8999 207.881 51.7134 207.881H119.73C123.392 207.881 126.905 206.426 129.495 203.836C132.084 201.246 133.539 197.734 133.539 194.072V19.0569C133.539 17.2435 133.182 15.4478 132.488 13.7725C131.794 12.0971 130.777 10.5748 129.495 9.29255C128.212 8.01029 126.69 6.99314 125.014 6.29918C123.339 5.60522 121.543 5.24805 119.73 5.24805ZM118.245 86.4386C118.243 87.3863 117.865 88.2945 117.195 88.9647C116.524 89.6348 115.616 90.0126 114.668 90.0153H97.3799C96.4321 90.0126 95.5239 89.6348 94.8537 88.9647C94.1835 88.2945 93.8057 87.3863 93.803 86.4386V85.5444C93.8057 84.5966 94.1835 83.6885 94.8537 83.0183C95.5239 82.3481 96.4321 81.9704 97.3799 81.9676H114.668C115.616 81.9704 116.524 82.3481 117.195 83.0183C117.865 83.6885 118.243 84.5966 118.245 85.5444V86.4386ZM120.183 70.6412C120.18 71.5889 119.802 72.4971 119.132 73.1673C118.462 73.8374 117.554 74.2152 116.606 74.2179H54.6057C53.6579 74.2152 52.7497 73.8374 52.0795 73.1673C51.4093 72.4971 51.0315 71.5889 51.0288 70.6412V69.747C51.0315 68.7992 51.4093 67.8911 52.0795 67.2209C52.7497 66.5507 53.6579 66.173 54.6057 66.1702H116.606C117.554 66.173 118.462 66.5507 119.132 67.2209C119.802 67.8911 120.18 68.7992 120.183 69.747V70.6412ZM120.183 54.8438C120.18 55.7915 119.802 56.6997 119.132 57.3699C118.462 58.04 117.554 58.4178 116.606 58.4206H54.6057C53.6579 58.4178 52.7497 58.0401 52.0795 57.3699C51.4093 56.6997 51.0315 55.7915 51.0288 54.8438V53.9496C51.0315 53.0018 51.4093 52.0937 52.0795 51.4235C52.7497 50.7533 53.6579 50.3756 54.6057 50.3728H116.606C117.554 50.3756 118.462 50.7533 119.132 51.4235C119.802 52.0937 120.18 53.0018 120.183 53.9496V54.8438ZM120.183 39.0464C120.18 39.9942 119.802 40.9023 119.132 41.5725C118.462 42.2427 117.554 42.6204 116.606 42.6232H54.6057C53.6579 42.6204 52.7497 42.2427 52.0795 41.5725C51.4093 40.9023 51.0315 39.9942 51.0288 39.0464V38.1522C51.0315 37.2044 51.4093 36.2963 52.0795 35.6261C52.7497 34.9559 53.6579 34.5782 54.6057 34.5754H116.606C117.554 34.5782 118.462 34.9559 119.132 35.6261C119.802 36.2963 120.18 37.2044 120.183 38.1522V39.0464Z" fill="white"/>
<path d="M55.947 72.4288C57.0994 72.4288 58.0336 71.4946 58.0336 70.3423C58.0336 69.19 57.0994 68.2559 55.947 68.2559C54.7947 68.2559 53.8605 69.19 53.8605 70.3423C53.8605 71.4946 54.7947 72.4288 55.947 72.4288Z" fill="white"/>
<path d="M62.8029 72.4288C63.9552 72.4288 64.8894 71.4946 64.8894 70.3423C64.8894 69.19 63.9552 68.2559 62.8029 68.2559C61.6505 68.2559 60.7163 69.19 60.7163 70.3423C60.7163 71.4946 61.6505 72.4288 62.8029 72.4288Z" fill="white"/>
<path d="M69.6587 72.4288C70.8111 72.4288 71.7452 71.4946 71.7452 70.3423C71.7452 69.19 70.8111 68.2559 69.6587 68.2559C68.5063 68.2559 67.5721 69.19 67.5721 70.3423C67.5721 71.4946 68.5063 72.4288 69.6587 72.4288Z" fill="white"/>
<path d="M76.5144 72.4288C77.6668 72.4288 78.6009 71.4946 78.6009 70.3423C78.6009 69.19 77.6668 68.2559 76.5144 68.2559C75.362 68.2559 74.4279 69.19 74.4279 70.3423C74.4279 71.4946 75.362 72.4288 76.5144 72.4288Z" fill="white"/>
<path d="M98.8702 88.2276C100.023 88.2276 100.957 87.2934 100.957 86.1411C100.957 84.9888 100.023 84.0547 98.8702 84.0547C97.7179 84.0547 96.7837 84.9888 96.7837 86.1411C96.7837 87.2934 97.7179 88.2276 98.8702 88.2276Z" fill="white"/>
<path d="M105.726 88.2276C106.878 88.2276 107.813 87.2934 107.813 86.1411C107.813 84.9888 106.878 84.0547 105.726 84.0547C104.574 84.0547 103.64 84.9888 103.64 86.1411C103.64 87.2934 104.574 88.2276 105.726 88.2276Z" fill="white"/>
<path d="M112.582 88.2276C113.734 88.2276 114.668 87.2934 114.668 86.1411C114.668 84.9888 113.734 84.0547 112.582 84.0547C111.43 84.0547 110.495 84.9888 110.495 86.1411C110.495 87.2934 111.43 88.2276 112.582 88.2276Z" fill="white"/>
<path d="M120.663 113.174H49.9529C48.2917 113.174 46.6986 113.834 45.5239 115.008C44.3492 116.183 43.6893 117.776 43.6893 119.437V153.887C43.6893 155.548 44.3492 157.141 45.5239 158.316C46.6986 159.49 48.2917 160.15 49.9529 160.15H120.663C122.324 160.15 123.917 159.49 125.092 158.316C126.266 157.141 126.926 155.548 126.926 153.887V119.437C126.926 117.776 126.266 116.183 125.092 115.008C123.917 113.834 122.324 113.174 120.663 113.174ZM48.2035 117.446C48.3431 117.421 51.6541 116.858 54.3958 118.507C57.1374 120.157 58.1907 123.346 58.2341 123.481L58.345 123.825L57.9892 123.888C57.4816 123.967 56.9684 124.005 56.4548 124.001C54.8251 124.032 53.2169 123.626 51.7967 122.827C49.0552 121.178 48.0019 117.988 47.9585 117.853L47.8477 117.509L48.2035 117.446ZM63.5527 149.431H50.941C50.0212 149.431 49.1391 149.065 48.4886 148.415C47.8382 147.764 47.4728 146.882 47.4728 145.963C47.4728 145.043 47.8382 144.161 48.4886 143.51C49.1391 142.86 50.0212 142.495 50.941 142.495H63.5527C64.4725 142.495 65.3547 142.86 66.0051 143.51C66.6555 144.161 67.0209 145.043 67.0209 145.963C67.0209 146.882 66.6555 147.764 66.0051 148.415C65.3547 149.065 64.4725 149.431 63.5527 149.431ZM120.936 148.8C120.933 149.803 120.533 150.763 119.824 151.472C119.115 152.181 118.155 152.58 117.152 152.583H107.693C106.691 152.58 105.73 152.181 105.021 151.472C104.312 150.763 103.913 149.803 103.91 148.8V143.125C103.913 142.123 104.312 141.162 105.021 140.453C105.73 139.744 106.691 139.345 107.693 139.342H117.152C118.155 139.345 119.115 139.744 119.824 140.453C120.533 141.162 120.933 142.123 120.936 143.125L120.936 148.8Z" fill="#FF5757"/>
<path d="M110.743 147.631H106.94C106.668 147.631 106.408 147.739 106.216 147.931C106.024 148.123 105.916 148.383 105.916 148.655C105.916 148.926 106.024 149.187 106.216 149.379C106.408 149.571 106.668 149.679 106.94 149.679H110.743C111.015 149.679 111.275 149.571 111.467 149.379C111.659 149.187 111.767 148.926 111.767 148.655C111.767 148.383 111.659 148.123 111.467 147.931C111.275 147.739 111.015 147.631 110.743 147.631Z" fill="#3F3D56"/>
<path d="M117.764 147.631H113.961C113.69 147.631 113.429 147.739 113.237 147.931C113.045 148.123 112.937 148.383 112.937 148.655C112.937 148.926 113.045 149.187 113.237 149.379C113.429 149.571 113.69 149.679 113.961 149.679H117.764C118.036 149.679 118.296 149.571 118.488 149.379C118.68 149.187 118.788 148.926 118.788 148.655C118.788 148.383 118.68 148.123 118.488 147.931C118.296 147.739 118.036 147.631 117.764 147.631Z" fill="#3F3D56"/>
<path d="M110.743 144.74H106.939C106.668 144.74 106.407 144.848 106.215 145.04C106.023 145.232 105.916 145.493 105.916 145.764C105.916 146.036 106.023 146.296 106.215 146.488C106.407 146.68 106.668 146.788 106.939 146.788H110.743C111.014 146.788 111.275 146.68 111.467 146.488C111.659 146.296 111.766 146.036 111.766 145.764C111.766 145.493 111.659 145.232 111.467 145.04C111.275 144.848 111.014 144.74 110.743 144.74Z" fill="#3F3D56"/>
<path d="M117.764 144.74H113.961C113.689 144.74 113.429 144.848 113.237 145.04C113.045 145.232 112.937 145.493 112.937 145.764C112.937 146.036 113.045 146.296 113.237 146.488C113.429 146.68 113.689 146.788 113.961 146.788H117.764C118.035 146.788 118.296 146.68 118.488 146.488C118.68 146.296 118.788 146.036 118.788 145.764C118.788 145.493 118.68 145.232 118.488 145.04C118.296 144.848 118.035 144.74 117.764 144.74Z" fill="#3F3D56"/>
<path d="M110.743 141.908H106.939C106.668 141.908 106.407 142.016 106.215 142.208C106.023 142.4 105.916 142.661 105.916 142.932C105.916 143.204 106.023 143.464 106.215 143.656C106.407 143.848 106.668 143.956 106.939 143.956H110.743C111.014 143.956 111.275 143.848 111.467 143.656C111.659 143.464 111.766 143.204 111.766 142.932C111.766 142.661 111.659 142.4 111.467 142.208C111.275 142.016 111.014 141.908 110.743 141.908Z" fill="#3F3D56"/>
<path d="M117.764 141.908H113.961C113.689 141.908 113.429 142.016 113.237 142.208C113.045 142.4 112.937 142.661 112.937 142.932C112.937 143.204 113.045 143.464 113.237 143.656C113.429 143.848 113.689 143.956 113.961 143.956H117.764C118.035 143.956 118.296 143.848 118.488 143.656C118.68 143.464 118.788 143.204 118.788 142.932C118.788 142.661 118.68 142.4 118.488 142.208C118.296 142.016 118.035 141.908 117.764 141.908Z" fill="#3F3D56"/>
<path d="M169.637 126.15H160.414V135.373H169.637V126.15Z" fill="#E6E6E6"/>
<path d="M149.544 131.75H164.696V146.901H149.544V131.75ZM164.037 132.409H150.203V146.243H164.037V132.409Z" fill="#3F3D56"/>
<path d="M9.22298 50.0645H0V59.287H9.22298V50.0645Z" fill="#E6E6E6"/>
<path d="M20.093 53.6884H4.94092V38.5371H20.093V53.6884ZM5.5997 53.0297H19.4342V39.1959H5.5997V53.0297Z" fill="#3F3D56"/>
<path d="M215.119 217.855H211.08L209.159 202.279H215.119L215.119 217.855Z" fill="#FFB8B8"/>
<path d="M208.196 216.701H215.984V221.605H203.292C203.292 220.304 203.809 219.057 204.728 218.137C205.648 217.218 206.895 216.701 208.196 216.701Z" fill="#2F2E41"/>
<path d="M235.211 217.855H231.173L229.252 202.279H235.212L235.211 217.855Z" fill="#FFB8B8"/>
<path d="M228.289 216.701H236.077V221.605H223.385C223.385 220.304 223.902 219.057 224.821 218.137C225.741 217.218 226.988 216.701 228.289 216.701Z" fill="#2F2E41"/>
<path d="M194.861 162.154C194.57 161.726 194.377 161.24 194.295 160.729C194.213 160.218 194.243 159.696 194.385 159.198C194.527 158.701 194.776 158.24 195.115 157.849C195.453 157.459 195.874 157.147 196.346 156.936L210.074 119.102L216.829 122.788L201.155 158.944C201.456 159.761 201.448 160.66 201.131 161.471C200.813 162.282 200.21 162.949 199.434 163.345C198.658 163.74 197.764 163.838 196.921 163.618C196.078 163.399 195.345 162.878 194.861 162.154Z" fill="#FFB8B8"/>
<path d="M233.149 169.262C232.7 169.005 232.313 168.652 232.015 168.229C231.718 167.806 231.516 167.323 231.425 166.814C231.334 166.305 231.356 165.782 231.489 165.282C231.623 164.782 231.864 164.317 232.196 163.921L227.943 123.898L235.63 124.25L237.398 163.617C238.027 164.219 238.414 165.031 238.484 165.899C238.555 166.767 238.305 167.631 237.781 168.327C237.257 169.023 236.496 169.502 235.643 169.675C234.789 169.847 233.902 169.7 233.149 169.262Z" fill="#FFB8B8"/>
<path d="M220.885 112.092C225.353 112.092 228.975 108.47 228.975 104.002C228.975 99.5341 225.353 95.9121 220.885 95.9121C216.417 95.9121 212.795 99.5341 212.795 104.002C212.795 108.47 216.417 112.092 220.885 112.092Z" fill="#FFB8B8"/>
<path d="M233.097 160.159H208.707L208.736 159.97C208.78 159.686 213.083 131.499 209.909 122.277C209.591 121.371 209.619 120.379 209.988 119.492C210.357 118.605 211.041 117.886 211.908 117.474C216.445 115.337 225.152 112.707 232.502 119.091C233.584 120.045 234.428 121.239 234.969 122.576C235.51 123.914 235.732 125.359 235.618 126.797L233.097 160.159Z" fill="#CCCCCC"/>
<path d="M213.391 135.665L202.41 133.437L207.557 121.24C207.865 120.059 208.629 119.048 209.682 118.429C210.734 117.81 211.989 117.634 213.171 117.939C214.354 118.245 215.366 119.006 215.988 120.057C216.609 121.108 216.788 122.362 216.486 123.545L213.391 135.665Z" fill="#CCCCCC"/>
<path d="M227.455 139.801L226.795 124.669C226.294 121.824 227.923 119.135 230.427 118.696C232.932 118.258 235.378 120.231 235.881 123.096L238.362 137.235L227.455 139.801Z" fill="#CCCCCC"/>
<path d="M232.286 158.35C236.21 173.296 236.638 192.298 235.58 213.026L230.309 212.367L220.757 172.842L215.487 213.026L209.558 212.697C207.786 190.948 206.062 172.277 208.899 159.996L232.286 158.35Z" fill="#2F2E41"/>
<path d="M226.216 110.256C224.707 111.863 221.904 111 221.707 108.804C221.692 108.634 221.693 108.462 221.71 108.292C221.812 107.319 222.374 106.436 222.239 105.408C222.209 105.153 222.114 104.909 221.963 104.701C220.76 103.09 217.937 105.421 216.802 103.963C216.106 103.069 216.924 101.662 216.39 100.663C215.685 99.3439 213.597 99.9944 212.287 99.2722C210.831 98.4687 210.918 96.2337 211.877 94.8742C213.046 93.2162 215.097 92.3315 217.122 92.204C219.147 92.0765 221.158 92.6239 223.048 93.3606C225.196 94.1977 227.326 95.3545 228.648 97.2432C230.256 99.54 230.41 102.628 229.606 105.313C229.117 106.947 227.448 108.943 226.216 110.256Z" fill="#2F2E41"/>
<path d="M281.671 222.001H156.172C156.085 222.001 156.001 221.966 155.939 221.904C155.877 221.842 155.843 221.759 155.843 221.671C155.843 221.584 155.877 221.5 155.939 221.438C156.001 221.377 156.085 221.342 156.172 221.342H281.671C281.758 221.342 281.842 221.377 281.904 221.438C281.965 221.5 282 221.584 282 221.671C282 221.759 281.965 221.842 281.904 221.904C281.842 221.966 281.758 222.001 281.671 222.001Z" fill="#3F3D56"/>
</g>
<defs>
<clipPath id="clip0_1006_8750">
<rect width="282" height="222" fill="white"/>
</clipPath>
</defs>
</svg>