<svg width="282" height="223" viewBox="0 0 282 223" fill="none" xmlns="http://www.w3.org/2000/svg">
<g clip-path="url(#clip0_1006_8792)">
<path d="M138.781 50.9395H137.615V18.991C137.615 14.0869 135.667 9.38361 132.199 5.91588C128.731 2.44816 124.027 0.500006 119.123 0.5H51.4325C49.0042 0.499991 46.5996 0.978265 44.356 1.90751C42.1125 2.83676 40.074 4.19879 38.3568 5.91582C36.6397 7.63286 35.2776 9.67128 34.3483 11.9147C33.419 14.1581 32.9407 16.5626 32.9407 18.9909V194.263C32.9407 196.691 33.419 199.096 34.3483 201.339C35.2776 203.583 36.6397 205.621 38.3568 207.338C40.0739 209.055 42.1124 210.417 44.3559 211.346C46.5995 212.276 49.0041 212.754 51.4324 212.754H119.123C121.551 212.754 123.956 212.276 126.199 211.346C128.443 210.417 130.481 209.055 132.199 207.338C133.916 205.621 135.278 203.583 136.207 201.339C137.136 199.096 137.615 196.691 137.615 194.263V73.681H138.781V50.9395Z" fill="#3F3D56"/>
<path d="M119.73 5.74805H110.894C111.3 6.74421 111.455 7.825 111.346 8.89523C111.236 9.96545 110.865 10.9923 110.264 11.8852C109.664 12.7781 108.854 13.5098 107.904 14.0157C106.955 14.5216 105.895 14.7863 104.82 14.7863H66.0406C64.9647 14.7863 63.9053 14.5216 62.9558 14.0157C62.0063 13.5098 61.1958 12.7781 60.5957 11.8852C59.9955 10.9923 59.6242 9.96545 59.5144 8.89523C59.4047 7.82501 59.5598 6.74421 59.9661 5.74805H51.7134C48.0509 5.74804 44.5384 7.20289 41.9486 9.79254C39.3589 12.3822 37.9039 15.8945 37.9039 19.5568V194.572C37.9039 196.385 38.2611 198.181 38.9551 199.856C39.6491 201.531 40.6663 203.054 41.9486 204.336C43.231 205.618 44.7533 206.635 46.4287 207.329C48.1042 208.023 49.8999 208.381 51.7134 208.381H119.73C123.392 208.381 126.905 206.926 129.495 204.336C132.084 201.746 133.539 198.234 133.539 194.572V19.5569C133.539 17.7435 133.182 15.9478 132.488 14.2725C131.794 12.5971 130.777 11.0748 129.495 9.79255C128.212 8.51029 126.69 7.49314 125.014 6.79918C123.339 6.10522 121.543 5.74805 119.73 5.74805ZM118.245 86.9386C118.243 87.8863 117.865 88.7945 117.195 89.4647C116.524 90.1348 115.616 90.5126 114.668 90.5153H97.3799C96.4321 90.5126 95.5239 90.1348 94.8537 89.4647C94.1835 88.7945 93.8057 87.8863 93.803 86.9386V86.0444C93.8057 85.0966 94.1835 84.1885 94.8537 83.5183C95.5239 82.8481 96.4321 82.4704 97.3799 82.4676H114.668C115.616 82.4704 116.524 82.8481 117.195 83.5183C117.865 84.1885 118.243 85.0966 118.245 86.0444V86.9386ZM120.183 71.1412C120.18 72.0889 119.802 72.9971 119.132 73.6673C118.462 74.3374 117.554 74.7152 116.606 74.7179H54.6057C53.6579 74.7152 52.7497 74.3374 52.0795 73.6673C51.4093 72.9971 51.0315 72.0889 51.0288 71.1412V70.247C51.0315 69.2992 51.4093 68.3911 52.0795 67.7209C52.7497 67.0507 53.6579 66.673 54.6057 66.6702H116.606C117.554 66.673 118.462 67.0507 119.132 67.7209C119.802 68.3911 120.18 69.2992 120.183 70.247V71.1412ZM120.183 55.3438C120.18 56.2915 119.802 57.1997 119.132 57.8699C118.462 58.54 117.554 58.9178 116.606 58.9206H54.6057C53.6579 58.9178 52.7497 58.5401 52.0795 57.8699C51.4093 57.1997 51.0315 56.2915 51.0288 55.3438V54.4496C51.0315 53.5018 51.4093 52.5937 52.0795 51.9235C52.7497 51.2533 53.6579 50.8756 54.6057 50.8728H116.606C117.554 50.8756 118.462 51.2533 119.132 51.9235C119.802 52.5937 120.18 53.5018 120.183 54.4496V55.3438ZM120.183 39.5464C120.18 40.4942 119.802 41.4023 119.132 42.0725C118.462 42.7427 117.554 43.1204 116.606 43.1232H54.6057C53.6579 43.1204 52.7497 42.7427 52.0795 42.0725C51.4093 41.4023 51.0315 40.4942 51.0288 39.5464V38.6522C51.0315 37.7044 51.4093 36.7963 52.0795 36.1261C52.7497 35.4559 53.6579 35.0782 54.6057 35.0754H116.606C117.554 35.0782 118.462 35.4559 119.132 36.1261C119.802 36.7963 120.18 37.7044 120.183 38.6522V39.5464Z" fill="white"/>
<path d="M55.947 72.9288C57.0994 72.9288 58.0336 71.9946 58.0336 70.8423C58.0336 69.69 57.0994 68.7559 55.947 68.7559C54.7947 68.7559 53.8605 69.69 53.8605 70.8423C53.8605 71.9946 54.7947 72.9288 55.947 72.9288Z" fill="white"/>
<path d="M62.8029 72.9288C63.9552 72.9288 64.8894 71.9946 64.8894 70.8423C64.8894 69.69 63.9552 68.7559 62.8029 68.7559C61.6505 68.7559 60.7163 69.69 60.7163 70.8423C60.7163 71.9946 61.6505 72.9288 62.8029 72.9288Z" fill="white"/>
<path d="M69.6587 72.9288C70.8111 72.9288 71.7452 71.9946 71.7452 70.8423C71.7452 69.69 70.8111 68.7559 69.6587 68.7559C68.5063 68.7559 67.5721 69.69 67.5721 70.8423C67.5721 71.9946 68.5063 72.9288 69.6587 72.9288Z" fill="white"/>
<path d="M76.5144 72.9288C77.6668 72.9288 78.6009 71.9946 78.6009 70.8423C78.6009 69.69 77.6668 68.7559 76.5144 68.7559C75.362 68.7559 74.4279 69.69 74.4279 70.8423C74.4279 71.9946 75.362 72.9288 76.5144 72.9288Z" fill="white"/>
<path d="M98.8702 88.7276C100.023 88.7276 100.957 87.7934 100.957 86.6411C100.957 85.4888 100.023 84.5547 98.8702 84.5547C97.7179 84.5547 96.7837 85.4888 96.7837 86.6411C96.7837 87.7934 97.7179 88.7276 98.8702 88.7276Z" fill="white"/>
<path d="M105.726 88.7276C106.878 88.7276 107.813 87.7934 107.813 86.6411C107.813 85.4888 106.878 84.5547 105.726 84.5547C104.574 84.5547 103.64 85.4888 103.64 86.6411C103.64 87.7934 104.574 88.7276 105.726 88.7276Z" fill="white"/>
<path d="M112.582 88.7276C113.734 88.7276 114.668 87.7934 114.668 86.6411C114.668 85.4888 113.734 84.5547 112.582 84.5547C111.43 84.5547 110.495 85.4888 110.495 86.6411C110.495 87.7934 111.43 88.7276 112.582 88.7276Z" fill="white"/>
<path d="M120.663 113.674H49.9529C48.2917 113.674 46.6986 114.334 45.5239 115.508C44.3492 116.683 43.6893 118.276 43.6893 119.937V154.387C43.6893 156.048 44.3492 157.641 45.5239 158.816C46.6986 159.99 48.2917 160.65 49.9529 160.65H120.663C122.324 160.65 123.917 159.99 125.092 158.816C126.266 157.641 126.926 156.048 126.926 154.387V119.937C126.926 118.276 126.266 116.683 125.092 115.508C123.917 114.334 122.324 113.674 120.663 113.674ZM48.2035 117.946C48.3431 117.921 51.6541 117.358 54.3958 119.007C57.1374 120.657 58.1907 123.846 58.2341 123.981L58.345 124.325L57.9892 124.388C57.4816 124.467 56.9684 124.505 56.4548 124.501C54.8251 124.532 53.2169 124.126 51.7967 123.327C49.0552 121.678 48.0019 118.488 47.9585 118.353L47.8477 118.009L48.2035 117.946ZM63.5527 149.931H50.941C50.0212 149.931 49.1391 149.565 48.4886 148.915C47.8382 148.264 47.4728 147.382 47.4728 146.463C47.4728 145.543 47.8382 144.661 48.4886 144.01C49.1391 143.36 50.0212 142.995 50.941 142.995H63.5527C64.4725 142.995 65.3547 143.36 66.0051 144.01C66.6555 144.661 67.0209 145.543 67.0209 146.463C67.0209 147.382 66.6555 148.264 66.0051 148.915C65.3547 149.565 64.4725 149.931 63.5527 149.931ZM120.936 149.3C120.933 150.303 120.533 151.263 119.824 151.972C119.115 152.681 118.155 153.08 117.152 153.083H107.693C106.691 153.08 105.73 152.681 105.021 151.972C104.312 151.263 103.913 150.303 103.91 149.3V143.625C103.913 142.623 104.312 141.662 105.021 140.953C105.73 140.244 106.691 139.845 107.693 139.842H117.152C118.155 139.845 119.115 140.244 119.824 140.953C120.533 141.662 120.933 142.623 120.936 143.625L120.936 149.3Z" fill="#2BFF60"/>
<path d="M110.743 148.131H106.94C106.668 148.131 106.408 148.239 106.216 148.431C106.024 148.623 105.916 148.883 105.916 149.155C105.916 149.426 106.024 149.687 106.216 149.879C106.408 150.071 106.668 150.179 106.94 150.179H110.743C111.015 150.179 111.275 150.071 111.467 149.879C111.659 149.687 111.767 149.426 111.767 149.155C111.767 148.883 111.659 148.623 111.467 148.431C111.275 148.239 111.015 148.131 110.743 148.131Z" fill="#3F3D56"/>
<path d="M117.764 148.131H113.961C113.69 148.131 113.429 148.239 113.237 148.431C113.045 148.623 112.937 148.883 112.937 149.155C112.937 149.426 113.045 149.687 113.237 149.879C113.429 150.071 113.69 150.179 113.961 150.179H117.764C118.036 150.179 118.296 150.071 118.488 149.879C118.68 149.687 118.788 149.426 118.788 149.155C118.788 148.883 118.68 148.623 118.488 148.431C118.296 148.239 118.036 148.131 117.764 148.131Z" fill="#3F3D56"/>
<path d="M110.743 145.24H106.939C106.668 145.24 106.407 145.348 106.215 145.54C106.023 145.732 105.916 145.993 105.916 146.264C105.916 146.536 106.023 146.796 106.215 146.988C106.407 147.18 106.668 147.288 106.939 147.288H110.743C111.014 147.288 111.275 147.18 111.467 146.988C111.659 146.796 111.766 146.536 111.766 146.264C111.766 145.993 111.659 145.732 111.467 145.54C111.275 145.348 111.014 145.24 110.743 145.24Z" fill="#3F3D56"/>
<path d="M117.764 145.24H113.961C113.689 145.24 113.429 145.348 113.237 145.54C113.045 145.732 112.937 145.993 112.937 146.264C112.937 146.536 113.045 146.796 113.237 146.988C113.429 147.18 113.689 147.288 113.961 147.288H117.764C118.035 147.288 118.296 147.18 118.488 146.988C118.68 146.796 118.788 146.536 118.788 146.264C118.788 145.993 118.68 145.732 118.488 145.54C118.296 145.348 118.035 145.24 117.764 145.24Z" fill="#3F3D56"/>
<path d="M110.743 142.408H106.939C106.668 142.408 106.407 142.516 106.215 142.708C106.023 142.9 105.916 143.161 105.916 143.432C105.916 143.704 106.023 143.964 106.215 144.156C106.407 144.348 106.668 144.456 106.939 144.456H110.743C111.014 144.456 111.275 144.348 111.467 144.156C111.659 143.964 111.766 143.704 111.766 143.432C111.766 143.161 111.659 142.9 111.467 142.708C111.275 142.516 111.014 142.408 110.743 142.408Z" fill="#3F3D56"/>
<path d="M117.764 142.408H113.961C113.689 142.408 113.429 142.516 113.237 142.708C113.045 142.9 112.937 143.161 112.937 143.432C112.937 143.704 113.045 143.964 113.237 144.156C113.429 144.348 113.689 144.456 113.961 144.456H117.764C118.035 144.456 118.296 144.348 118.488 144.156C118.68 143.964 118.788 143.704 118.788 143.432C118.788 143.161 118.68 142.9 118.488 142.708C118.296 142.516 118.035 142.408 117.764 142.408Z" fill="#3F3D56"/>
<path d="M169.637 126.65H160.414V135.873H169.637V126.65Z" fill="#E6E6E6"/>
<path d="M149.544 132.25H164.696V147.401H149.544V132.25ZM164.037 132.909H150.203V146.743H164.037V132.909Z" fill="#3F3D56"/>
<path d="M9.22298 50.5645H0V59.787H9.22298V50.5645Z" fill="#E6E6E6"/>
<path d="M20.093 54.1884H4.94092V39.0371H20.093V54.1884ZM5.5997 53.5297H19.4342V39.6959H5.5997V53.5297Z" fill="#3F3D56"/>
<path d="M215.119 218.355H211.08L209.159 202.779H215.119L215.119 218.355Z" fill="#FFB8B8"/>
<path d="M208.196 217.201H215.984V222.105H203.292C203.292 220.804 203.809 219.557 204.728 218.637C205.648 217.718 206.895 217.201 208.196 217.201Z" fill="#2F2E41"/>
<path d="M235.211 218.355H231.173L229.252 202.779H235.212L235.211 218.355Z" fill="#FFB8B8"/>
<path d="M228.289 217.201H236.077V222.105H223.385C223.385 220.804 223.902 219.557 224.821 218.637C225.741 217.718 226.988 217.201 228.289 217.201Z" fill="#2F2E41"/>
<path d="M194.861 162.654C194.57 162.226 194.377 161.74 194.295 161.229C194.213 160.718 194.243 160.196 194.385 159.698C194.527 159.201 194.776 158.74 195.115 158.349C195.453 157.959 195.874 157.647 196.346 157.436L210.074 119.602L216.829 123.288L201.155 159.444C201.456 160.261 201.448 161.16 201.131 161.971C200.813 162.782 200.21 163.449 199.434 163.845C198.658 164.24 197.764 164.338 196.921 164.118C196.078 163.899 195.345 163.378 194.861 162.654Z" fill="#FFB8B8"/>
<path d="M233.149 169.762C232.7 169.505 232.313 169.152 232.015 168.729C231.718 168.306 231.516 167.823 231.425 167.314C231.334 166.805 231.356 166.282 231.489 165.782C231.623 165.282 231.864 164.817 232.196 164.421L227.943 124.398L235.63 124.75L237.398 164.117C238.027 164.719 238.414 165.531 238.484 166.399C238.555 167.267 238.305 168.131 237.781 168.827C237.257 169.523 236.496 170.002 235.643 170.175C234.789 170.347 233.902 170.2 233.149 169.762Z" fill="#FFB8B8"/>
<path d="M220.885 112.592C225.353 112.592 228.975 108.97 228.975 104.502C228.975 100.034 225.353 96.4121 220.885 96.4121C216.417 96.4121 212.795 100.034 212.795 104.502C212.795 108.97 216.417 112.592 220.885 112.592Z" fill="#FFB8B8"/>
<path d="M233.097 160.659H208.707L208.736 160.47C208.78 160.186 213.083 131.999 209.909 122.777C209.591 121.871 209.619 120.879 209.988 119.992C210.357 119.105 211.041 118.386 211.908 117.974C216.445 115.837 225.152 113.207 232.502 119.591C233.584 120.545 234.428 121.739 234.969 123.076C235.51 124.414 235.732 125.859 235.618 127.297L233.097 160.659Z" fill="#CCCCCC"/>
<path d="M213.391 136.165L202.41 133.937L207.557 121.74C207.865 120.559 208.629 119.548 209.682 118.929C210.734 118.31 211.989 118.134 213.171 118.439C214.354 118.745 215.366 119.506 215.988 120.557C216.609 121.608 216.788 122.862 216.486 124.045L213.391 136.165Z" fill="#CCCCCC"/>
<path d="M227.455 140.301L226.795 125.169C226.294 122.324 227.923 119.635 230.427 119.196C232.932 118.758 235.378 120.731 235.881 123.596L238.362 137.735L227.455 140.301Z" fill="#CCCCCC"/>
<path d="M232.286 158.85C236.21 173.796 236.638 192.798 235.58 213.526L230.309 212.867L220.757 173.342L215.487 213.526L209.558 213.197C207.786 191.448 206.062 172.777 208.899 160.496L232.286 158.85Z" fill="#2F2E41"/>
<path d="M226.216 110.756C224.707 112.363 221.904 111.5 221.707 109.304C221.692 109.134 221.693 108.962 221.71 108.792C221.812 107.819 222.374 106.936 222.239 105.908C222.209 105.653 222.114 105.409 221.963 105.201C220.76 103.59 217.937 105.921 216.802 104.463C216.106 103.569 216.924 102.162 216.39 101.163C215.685 99.8439 213.597 100.494 212.287 99.7722C210.831 98.9687 210.918 96.7337 211.877 95.3742C213.046 93.7162 215.097 92.8315 217.122 92.704C219.147 92.5765 221.158 93.1239 223.048 93.8606C225.196 94.6977 227.326 95.8545 228.648 97.7432C230.256 100.04 230.41 103.128 229.606 105.813C229.117 107.447 227.448 109.443 226.216 110.756Z" fill="#2F2E41"/>
<path d="M281.671 222.501H156.172C156.085 222.501 156.001 222.466 155.939 222.404C155.877 222.342 155.843 222.259 155.843 222.171C155.843 222.084 155.877 222 155.939 221.938C156.001 221.877 156.085 221.842 156.172 221.842H281.671C281.758 221.842 281.842 221.877 281.904 221.938C281.965 222 282 222.084 282 222.171C282 222.259 281.965 222.342 281.904 222.404C281.842 222.466 281.758 222.501 281.671 222.501Z" fill="#3F3D56"/>
</g>
<defs>
<clipPath id="clip0_1006_8792">
<rect width="282" height="222" fill="white" transform="translate(0 0.5)"/>
</clipPath>
</defs>
</svg>
