<svg width="25" height="16" viewBox="0 0 25 16" fill="none" xmlns="http://www.w3.org/2000/svg">
<g clip-path="url(#clip0_2205_21350)">
<path d="M22.7923 0H2.8515C1.7502 0 0.857422 0.89543 0.857422 2V14C0.857422 15.1046 1.7502 16 2.8515 16H22.7923C23.8936 16 24.7863 15.1046 24.7863 14V2C24.7863 0.89543 23.8936 0 22.7923 0Z" fill="#016FD0"/>
<path fill-rule="evenodd" clip-rule="evenodd" d="M14.5801 13.3967V7.69531L24.6976 7.70442V9.27931L23.5282 10.5327L24.6976 11.7976V13.4059H22.8305L21.8382 12.3077L20.8531 13.4101L14.5801 13.3967Z" fill="#FFFFFE"/>
<path fill-rule="evenodd" clip-rule="evenodd" d="M15.2559 12.7692V8.32031H19.017V9.3452H16.4736V10.0409H18.9563V11.0487H16.4736V11.732H19.017V12.7692H15.2559Z" fill="#016FD0"/>
<path fill-rule="evenodd" clip-rule="evenodd" d="M18.9981 12.7691L21.0793 10.5421L18.998 8.32031H20.6089L21.8806 9.73035L23.1559 8.32031H24.6975V8.35532L22.6607 10.5421L24.6975 12.706V12.7691H23.1404L21.8462 11.3449L20.5652 12.7691H18.9981Z" fill="#016FD0"/>
<path fill-rule="evenodd" clip-rule="evenodd" d="M15.0517 2.63281H17.4905L18.3471 4.58366V2.63281H21.358L21.8772 4.09438L22.3982 2.63281H24.6973V8.3342H12.5469L15.0517 2.63281Z" fill="#FFFFFE"/>
<path fill-rule="evenodd" clip-rule="evenodd" d="M15.515 3.25L13.5469 7.69517H14.8968L15.2681 6.80501H17.28L17.6511 7.69517H19.0346L17.0746 3.25H15.515ZM15.6842 5.80744L16.2744 4.39236L16.8642 5.80744H15.6842Z" fill="#016FD0"/>
<path fill-rule="evenodd" clip-rule="evenodd" d="M19.0156 7.69508V3.25L20.9131 3.25654L21.8895 5.98927L22.8722 3.25H24.6984V7.69508L23.5232 7.70551V4.65217L22.414 7.69508H21.3414L20.2091 4.64174V7.69508H19.0156Z" fill="#016FD0"/>
</g>
<defs>
<clipPath id="clip0_2205_21350">
<rect width="23.9289" height="16" fill="white" transform="translate(0.857422)"/>
</clipPath>
</defs>
</svg>
