<svg xmlns="http://www.w3.org/2000/svg" width="24" height="16" viewBox="0 0 24 16" fill="none">
<g clip-path="url(#clip0_3384_6221)">
<path opacity="0.2" d="M15.9282 0.570313H1.46939C0.793469 0.570313 0 1.34909 0 2.0397V13.0601C0 13.7507 0.793469 14.5295 1.46939 14.5295H19.8367C20.5127 14.5295 21.3061 13.7507 21.3061 13.0601V7.52786C20.6872 8.08461 19.9228 8.45406 19.102 8.59317V8.65195C19.102 9.13684 18.8376 9.38664 18.3673 9.38664H2.20408C1.73388 9.38664 1.46939 9.13684 1.46939 8.65195V7.91725C1.46939 7.43235 1.73388 7.18256 2.20408 7.18256H15.0833C14.6592 6.71256 14.3416 6.15646 14.1524 5.55234C13.9632 4.94821 13.9068 4.31034 13.9871 3.68238C14.0673 3.05443 14.2823 2.45123 14.6173 1.9141C14.9523 1.37696 15.3995 0.918569 15.9282 0.570312V0.570313Z" fill="#697386"/>
<path d="M14.209 2.77344H0V4.97752H14.018C13.8945 4.23848 13.9602 3.48022 14.209 2.77344Z" fill="#697386"/>
</g>
<defs>
<clipPath id="clip0_3384_6221">
<rect width="23.5102" height="15.4286" fill="white" transform="translate(0 0.570312)"/>
</clipPath>
</defs>
</svg>