<svg width="25" height="16" viewBox="0 0 25 16" fill="none" xmlns="http://www.w3.org/2000/svg">
<g clip-path="url(#clip0_2205_21351)">
<path d="M22.7199 15.7499L22.7221 15.7499C23.6743 15.7581 24.4556 14.9773 24.4675 14.0042L24.4675 2.0063C24.4637 1.53569 24.2769 1.08617 23.9488 0.756802C23.6215 0.428269 23.1803 0.246149 22.7199 0.250071L2.78256 0.250062C2.32438 0.246149 1.88317 0.428269 1.55585 0.756802C1.22769 1.08617 1.04094 1.53569 1.03712 2.00426L1.03711 13.9937C1.04094 14.4643 1.22769 14.9138 1.55585 15.2432C1.88317 15.5717 2.32438 15.7538 2.78468 15.7499H22.7199ZM22.7189 16.2499C22.7185 16.2499 22.7182 16.2499 22.7178 16.2499L22.7199 16.2499H22.7189Z" fill="white" stroke="black" stroke-opacity="0.2" stroke-width="0.5"/>
<path d="M13.3633 16.0002H22.7203C23.2455 16.0046 23.751 15.7995 24.1255 15.4301C24.4999 15.0607 24.7128 14.5573 24.7171 14.0305V11.6719C21.1838 13.7062 17.3518 15.167 13.3633 16.0002Z" fill="#F27712"/>
<path d="M23.8919 9.2979H23.042L22.0849 8.03169H21.9941V9.2979H21.301V6.15307H22.3242C23.1245 6.15307 23.5866 6.48411 23.5866 7.07997C23.5866 7.56824 23.2978 7.88273 22.778 7.98204L23.8919 9.2979ZM22.8688 7.10479C22.8688 6.79859 22.6377 6.64135 22.2086 6.64135H21.9941V7.59307H22.1921C22.6377 7.59307 22.8688 7.42755 22.8688 7.10479ZM18.8751 6.15307H20.8389V6.68273H19.5682V7.38617H20.7894V7.92411H19.5682V8.77652H20.8389V9.30617H18.8751V6.15307ZM16.6472 9.38066L15.1455 6.14479H15.9046L16.8535 8.26342L17.8107 6.14479H18.5533L17.0351 9.38066H16.6637H16.6472ZM10.368 9.37238C9.31179 9.37238 8.48665 8.65238 8.48665 7.71721C8.48665 6.80686 9.32829 6.07031 10.3845 6.07031C10.6815 6.07031 10.9291 6.12824 11.2344 6.26066V6.98893C11.0032 6.76111 10.6921 6.63334 10.368 6.63307C9.70785 6.63307 9.20452 7.11307 9.20452 7.71721C9.20452 8.35445 9.6996 8.80962 10.401 8.80962C10.7145 8.80962 10.9538 8.71031 11.2344 8.46204V9.19031C10.9208 9.32273 10.6568 9.37238 10.368 9.37238ZM8.27212 8.3379C8.27212 8.95031 7.76879 9.37238 7.04267 9.37238C6.51458 9.37238 6.13502 9.19031 5.81322 8.77652L6.26704 8.38755C6.42382 8.66893 6.68786 8.80962 7.01791 8.80962C7.33147 8.80962 7.55425 8.61928 7.55425 8.371C7.55425 8.23031 7.48824 8.12273 7.34797 8.03997C7.19416 7.96511 7.034 7.90418 6.86939 7.8579C6.21753 7.651 5.99475 7.42755 5.99475 6.98893C5.99475 6.47583 6.47333 6.08686 7.10043 6.08686C7.49649 6.08686 7.8513 6.211 8.14835 6.44273L7.78529 6.85652C7.6414 6.6983 7.43772 6.60817 7.2242 6.60824C6.92715 6.60824 6.71261 6.75721 6.71261 6.95583C6.71261 7.12135 6.83638 7.21238 7.24895 7.35307C8.04108 7.60135 8.27212 7.83307 8.27212 8.34617V8.3379ZM4.86431 6.15307H5.55743V9.30617H4.86431V6.15307ZM2.63645 9.30617H1.61328V6.15307H2.63645C3.75863 6.15307 4.53426 6.79859 4.53426 7.72548C4.53426 8.19721 4.30322 8.64411 3.8989 8.94204C3.55235 9.19031 3.16453 9.30617 2.6282 9.30617H2.63645ZM3.44508 6.93928C3.21404 6.75721 2.95 6.691 2.49618 6.691H2.30639V8.77652H2.49618C2.94175 8.77652 3.22229 8.69376 3.44508 8.52824C3.68437 8.32962 3.82464 8.03169 3.82464 7.72548C3.82464 7.41928 3.68437 7.12962 3.44508 6.93928Z" fill="black"/>
<path d="M13.1639 6.07031C12.2563 6.07031 11.5137 6.79859 11.5137 7.70066C11.5137 8.66066 12.2233 9.38066 13.1639 9.38066C14.0881 9.38066 14.8142 8.65238 14.8142 7.72548C14.8142 6.79859 14.0963 6.07031 13.1639 6.07031Z" fill="#F27712"/>
</g>
<defs>
<clipPath id="clip0_2205_21351">
<rect width="23.9289" height="16" fill="white" transform="translate(0.787109)"/>
</clipPath>
</defs>
</svg>
