<svg width="25" height="16" viewBox="0 0 25 16" fill="none" xmlns="http://www.w3.org/2000/svg">
<g clip-path="url(#clip0_2205_21349)">
<path d="M22.8645 0H2.92376C1.82247 0 0.929688 0.89543 0.929688 2V14C0.929688 15.1046 1.82247 16 2.92376 16H22.8645C23.9658 16 24.8586 15.1046 24.8586 14V2C24.8586 0.89543 23.9658 0 22.8645 0Z" fill="#252525"/>
<path d="M9.90316 13C12.6564 13 14.8883 10.7614 14.8883 8C14.8883 5.23858 12.6564 3 9.90316 3C7.14991 3 4.91797 5.23858 4.91797 8C4.91797 10.7614 7.14991 13 9.90316 13Z" fill="#EB001B"/>
<path d="M15.8856 13C18.6388 13 20.8708 10.7614 20.8708 8C20.8708 5.23858 18.6388 3 15.8856 3C13.1323 3 10.9004 5.23858 10.9004 8C10.9004 10.7614 13.1323 13 15.8856 13Z" fill="#F79E1B"/>
<path fill-rule="evenodd" clip-rule="evenodd" d="M12.8945 4C14.1053 4.91221 14.8885 6.36455 14.8885 8.00037C14.8885 9.63618 14.1053 11.0885 12.8945 12.0007C11.6836 11.0885 10.9004 9.63618 10.9004 8.00037C10.9004 6.36455 11.6836 4.91221 12.8945 4Z" fill="#FF5F00"/>
</g>
<defs>
<clipPath id="clip0_2205_21349">
<rect width="23.9289" height="16" fill="white" transform="translate(0.929688)"/>
</clipPath>
</defs>
</svg>
