<svg width="24" height="16" viewBox="0 0 24 16" fill="none" xmlns="http://www.w3.org/2000/svg">
<g clip-path="url(#clip0_2205_21348)">
<path d="M21.6863 0.25H2.24408C1.14278 0.25 0.25 1.14543 0.25 2.25V13.75C0.25 14.8546 1.14278 15.75 2.24408 15.75H21.6863C22.7876 15.75 23.6804 14.8546 23.6804 13.75V2.25C23.6804 1.14543 22.7876 0.25 21.6863 0.25Z" fill="white" stroke="black" stroke-opacity="0.2" stroke-width="0.5"/>
<path d="M2.78048 5.91444C2.25889 5.62751 1.66361 5.39674 0.998047 5.23659L1.02596 5.11188H3.75484C4.12472 5.12489 4.42486 5.23651 4.52252 5.63071L5.11558 8.46659L5.29726 9.32073L6.95831 5.11188H8.7518L6.08581 11.2775H4.29223L2.78048 5.91444ZM10.0711 11.2841H8.37496L9.43583 5.11188H11.1318L10.0711 11.2841ZM16.2196 5.26277L15.9889 6.59559L15.8355 6.53004C15.5286 6.40525 15.1235 6.28054 14.5721 6.29371C13.9025 6.29371 13.6021 6.56277 13.5952 6.82546C13.5952 7.11441 13.9585 7.30484 14.5517 7.58725C15.5289 8.02719 15.9822 8.56557 15.9754 9.26819C15.9617 10.5486 14.803 11.3761 13.0234 11.3761C12.2625 11.3694 11.5296 11.2181 11.1317 11.0476L11.3691 9.66205L11.5924 9.76066C12.1438 9.99071 12.5067 10.089 13.1838 10.089C13.6722 10.089 14.1957 9.89838 14.2024 9.48488C14.2024 9.21565 13.9793 9.01851 13.3231 8.71646C12.6811 8.42087 11.8227 7.92848 11.8366 7.04198C11.8439 5.84042 13.0234 5 14.6983 5C15.3544 5 15.8851 5.13789 16.2196 5.26277ZM18.4739 9.09749H19.8837C19.8139 8.78889 19.4927 7.31147 19.4927 7.31147L19.3742 6.77964C19.2904 7.00943 19.144 7.38373 19.151 7.37056C19.151 7.37056 18.6136 8.7429 18.4739 9.09749ZM20.5675 5.11188L21.9358 11.284H20.3654C20.3654 11.284 20.2117 10.5748 20.163 10.3581H17.9854C17.9224 10.5222 17.6294 11.284 17.6294 11.284H15.8497L18.3691 5.62399C18.5436 5.22342 18.851 5.11188 19.2556 5.11188H20.5675Z" fill="#171E6C"/>
</g>
<defs>
<clipPath id="clip0_2205_21348">
<rect width="23.9289" height="16" fill="white"/>
</clipPath>
</defs>
</svg>
