<svg width="50" height="50" viewBox="0 0 50 50" fill="none" xmlns="http://www.w3.org/2000/svg">
<g id="icon/clipboard-copy">
<path id="Vector" d="M31.2493 4.16602H18.7493C17.5988 4.16602 16.666 5.09876 16.666 6.24935V10.416C16.666 11.5666 17.5988 12.4993 18.7493 12.4993H31.2493C32.3999 12.4993 33.3327 11.5666 33.3327 10.416V6.24935C33.3327 5.09876 32.3999 4.16602 31.2493 4.16602Z" stroke="#5185FF" stroke-width="2" stroke-linecap="round" stroke-linejoin="round"/>
<path id="Vector_2" d="M16.6673 8.33398H12.5007C11.3956 8.33398 10.3358 8.77297 9.55437 9.55437C8.77297 10.3358 8.33398 11.3956 8.33398 12.5007V41.6673C8.33398 42.7724 8.77297 43.8322 9.55437 44.6136C10.3358 45.395 11.3956 45.834 12.5007 45.834H37.5007C38.6057 45.834 39.6655 45.395 40.4469 44.6136C41.2283 43.8322 41.6673 42.7724 41.6673 41.6673V37.5006" stroke="#5185FF" stroke-width="2" stroke-linecap="round" stroke-linejoin="round"/>
<path id="Vector_3" d="M33.334 8.33398H37.5007C38.6057 8.33398 39.6655 8.77297 40.4469 9.55437C41.2283 10.3358 41.6673 11.3956 41.6673 12.5007V20.834" stroke="#5185FF" stroke-width="2" stroke-linecap="round" stroke-linejoin="round"/>
<path id="Vector_4" d="M43.7494 29.166H22.916" stroke="#5185FF" stroke-width="2" stroke-linecap="round" stroke-linejoin="round"/>
<path id="Vector_5" d="M31.2493 20.834L22.916 29.1673L31.2493 37.5007" stroke="#5185FF" stroke-width="2" stroke-linecap="round" stroke-linejoin="round"/>
</g>
</svg>
