<svg width="44" height="44" viewBox="0 0 44 44" fill="none" xmlns="http://www.w3.org/2000/svg">
<g id="instagram">
<path id="Vector" d="M31.166 3.66602H12.8327C7.77007 3.66602 3.66602 7.77007 3.66602 12.8327V31.166C3.66602 36.2286 7.77007 40.3327 12.8327 40.3327H31.166C36.2286 40.3327 40.3327 36.2286 40.3327 31.166V12.8327C40.3327 7.77007 36.2286 3.66602 31.166 3.66602Z" stroke="#5185FF" stroke-width="2" stroke-linecap="round" stroke-linejoin="round"/>
<path id="Vector_2" d="M29.3334 20.8456C29.5597 22.3713 29.2991 23.9296 28.5887 25.2987C27.8783 26.6679 26.7542 27.7781 25.3764 28.4716C23.9986 29.1651 22.4373 29.4065 20.9144 29.1614C19.3915 28.9164 17.9847 28.1974 16.894 27.1067C15.8033 26.016 15.0843 24.6092 14.8392 23.0863C14.5942 21.5634 14.8356 20.002 15.529 18.6242C16.2225 17.2465 17.3328 16.1224 18.7019 15.412C20.0711 14.7016 21.6293 14.441 23.1551 14.6672C24.7115 14.898 26.1523 15.6232 27.2649 16.7358C28.3774 17.8483 29.1027 19.2892 29.3334 20.8456Z" stroke="#5185FF" stroke-width="2" stroke-linecap="round" stroke-linejoin="round"/>
<path id="Vector_3" d="M32.084 11.916H32.1023" stroke="#5185FF" stroke-width="2" stroke-linecap="round" stroke-linejoin="round"/>
</g>
</svg>
