<svg width="43" height="36" viewBox="0 0 43 36" fill="none" xmlns="http://www.w3.org/2000/svg">
<path id="Vector" d="M42 1.01905C40.2154 2.29896 38.2394 3.27788 36.1482 3.91812C35.0258 2.60598 33.5341 1.67597 31.8749 1.25387C30.2157 0.831771 28.4691 0.937947 26.8712 1.55804C25.2732 2.17813 23.9012 3.28223 22.9406 4.72099C21.9799 6.15975 21.4771 7.86377 21.5 9.60258V11.4974C18.2249 11.5837 14.9796 10.8452 12.0532 9.34762C9.12684 7.85002 6.61014 5.63982 4.72727 2.91387C4.72727 2.91387 -2.72727 19.9672 14.0455 27.5465C10.2073 30.1954 5.63516 31.5236 1 31.3361C17.7727 40.8102 38.2727 31.3361 38.2727 9.54573C38.271 9.01794 38.2211 8.49145 38.1236 7.97303C40.0257 6.06589 41.3679 3.65799 42 1.01905Z" stroke="#5185FF" stroke-width="2" stroke-linecap="round" stroke-linejoin="round"/>
</svg>
